<svg version="1.1" id="Layer_1" xmlns="http://www.w3.org/2000/svg" xmlns:xlink="http://www.w3.org/1999/xlink" x="0px" y="0px"
	 width="100%" viewBox="0 0 116 150" enable-background="new 0 0 116 150" xml:space="preserve">
<path fill="#FDFEFE" opacity="1.000000" stroke="none" 
	d="
M30.000000,151.000000 
	C25.310745,151.000000 20.621489,151.000000 15.595318,150.675613 
	C20.967968,146.700287 21.656422,142.052780 17.047806,137.281631 
	C15.094135,135.259079 12.749444,133.608231 10.852351,131.540802 
	C10.318269,130.958740 10.740415,129.499252 10.723968,128.442215 
	C11.719475,128.601868 12.748764,128.651688 13.703077,128.945251 
	C15.409120,129.470047 17.069956,130.141815 19.388477,130.984253 
	C17.810081,124.493919 14.717138,122.622658 9.583179,123.902435 
	C5.947941,124.808632 3.583920,128.427444 5.035190,131.971497 
	C5.910610,134.109299 8.206524,135.635345 9.719995,137.550217 
	C11.309632,139.561447 12.882695,141.624176 14.099133,143.862167 
	C14.367867,144.356583 13.108073,145.681824 12.552126,146.624481 
	C11.760898,146.143295 10.429107,145.799683 10.265964,145.158646 
	C9.188651,140.925552 6.587507,142.766785 2.481970,143.231125 
	C5.214694,146.488266 7.107346,148.744141 9.000000,151.000000 
	C6.338769,151.000000 3.677539,151.000000 1.012231,151.000000 
	C1.008154,101.107361 1.008154,51.214722 1.008154,1.000000 
	C19.686327,1.000000 38.374504,1.000000 57.516266,1.468463 
	C57.962479,10.251832 57.955109,18.566738 57.784798,27.001251 
	C57.621853,27.120859 57.239811,27.252922 56.927307,27.058172 
	C48.017448,21.866789 39.420097,16.870155 30.013832,11.403399 
	C30.013832,22.830914 30.013832,32.926670 30.006027,43.013771 
	C29.998222,43.005108 30.016266,43.010841 29.661119,42.956146 
	C23.780369,39.973309 18.254766,37.045166 12.729162,34.117020 
	C12.381757,34.700668 12.034351,35.284317 11.686947,35.867962 
	C16.542025,39.748001 22.017778,42.687992 27.911850,45.340187 
	C27.960014,46.107346 27.997349,46.545132 27.669365,47.003517 
	C18.922791,51.602673 10.541535,56.181229 1.263535,61.249664 
	C10.528460,66.683609 18.793253,71.530968 27.601311,76.696953 
	C21.779108,80.341675 16.868422,83.415779 11.957737,86.489883 
	C12.382603,87.139610 12.807468,87.789330 13.232334,88.439056 
	C18.184521,85.181221 23.136705,81.923393 28.358902,78.804138 
	C29.069923,79.333427 29.510937,79.724152 29.960121,80.575348 
	C29.968294,90.751434 29.968294,100.467056 29.968294,111.538857 
	C39.475395,105.688126 48.007744,100.437263 56.815170,95.259354 
	C57.432072,95.494598 57.773895,95.656891 58.065971,96.300476 
	C58.016216,104.337624 58.016216,111.893471 58.016216,119.449318 
	C58.642670,119.435806 59.269119,119.422295 59.895573,119.408791 
	C59.895573,111.549683 59.895573,103.690575 60.194458,95.680008 
	C60.916180,95.385292 61.339012,95.242035 61.887260,95.488510 
	C70.417892,100.921150 78.823112,105.964050 87.849106,111.379410 
	C87.849106,100.018578 87.849106,89.933533 87.857269,79.910553 
	C87.865440,79.972610 87.875969,79.849815 88.258514,79.903732 
	C93.163300,82.233017 97.654968,84.572823 102.227325,86.742592 
	C103.518440,87.355278 105.045685,87.470352 106.464638,87.813652 
	C106.669716,87.160027 106.874802,86.506409 107.079880,85.852783 
	C101.379837,83.228401 95.679794,80.604027 90.041534,77.670052 
	C90.224754,76.957573 90.346184,76.554695 90.782913,76.062508 
	C99.321609,71.248657 107.545021,66.524117 116.686516,61.272106 
	C107.089767,55.794090 98.494438,50.887707 89.975800,45.730507 
	C90.258438,45.007572 90.464394,44.535450 91.058517,44.038719 
	C96.679543,41.252361 101.912399,38.490612 107.145256,35.728863 
	C106.771362,35.018528 106.397469,34.308193 106.023575,33.597858 
	C100.012512,36.626633 94.001457,39.655407 87.796013,42.609600 
	C87.376976,42.361629 87.205521,42.145947 87.283562,41.527649 
	C87.479858,31.632996 87.479858,22.098660 87.479858,11.964683 
	C78.379448,17.146013 69.637520,22.123243 60.684822,27.039501 
	C60.474052,26.978531 60.079212,26.787054 60.070747,26.331850 
	C60.041519,17.584431 60.020760,9.292215 60.000000,1.000000 
	C78.963615,1.000000 97.927231,1.000000 116.945419,1.000000 
	C116.945419,50.999996 116.945419,100.999992 116.945419,151.000000 
	C109.910751,151.000000 102.924156,151.000000 95.500832,150.637756 
	C100.471893,146.004074 100.622658,140.803528 95.449982,136.202271 
	C93.720558,134.663879 91.785378,133.316788 90.276978,131.591385 
	C89.740479,130.977722 90.189766,129.502228 90.189056,128.420151 
	C91.135788,128.617935 92.104698,128.744019 93.024506,129.028748 
	C94.822647,129.585373 96.593369,130.230591 98.945152,131.033676 
	C98.199654,125.823723 95.816650,123.264427 91.855820,123.808823 
	C89.276878,124.163277 86.096199,125.696976 84.688057,127.738876 
	C82.451157,130.982529 84.725250,133.880432 87.459846,136.248917 
	C89.565849,138.072968 91.609909,140.067368 93.208656,142.321426 
	C93.726219,143.051117 92.744919,144.843933 92.449234,146.150452 
	C91.426643,145.677322 90.378441,145.251938 89.387260,144.720261 
	C87.771835,143.853714 86.193634,142.917786 84.599724,142.011154 
	C84.058502,142.663605 83.517288,143.316071 82.976074,143.968536 
	C84.650719,146.312363 86.325363,148.656174 88.000000,151.000000 
	C69.979103,151.000000 51.958210,151.000000 33.620022,150.678864 
	C36.867081,149.643997 38.877876,147.310898 39.064323,143.852142 
	C39.320572,139.098404 39.398003,134.298294 39.028980,129.558762 
	C38.710392,125.467010 36.328041,122.992088 31.862339,122.885704 
	C27.062080,122.771355 24.872515,125.627083 24.233410,129.750534 
	C23.730377,132.996063 24.019011,136.358826 23.866085,139.665375 
	C23.633343,144.697662 25.273249,148.672836 30.000000,151.000000 
M74.067871,148.508713 
	C74.036606,148.341309 74.005341,148.173920 74.143997,147.081436 
	C74.088600,139.719193 74.033211,132.356934 73.994774,124.426445 
	C73.667938,124.303047 73.341095,124.179649 72.265266,123.900642 
	C71.505859,123.952744 70.746452,124.004845 69.434601,124.033699 
	C69.314262,124.349815 69.193924,124.665939 68.922905,125.911148 
	C68.978661,133.280762 69.034416,140.650360 69.003075,148.503632 
	C69.003075,148.503632 69.220062,148.944550 69.483673,149.568222 
	C70.930389,149.364655 72.377113,149.161087 74.067871,148.508713 
M58.176853,123.895248 
	C55.630886,123.513603 54.197315,124.198578 53.924404,127.160812 
	C53.565857,131.052582 52.678761,134.895660 52.018963,138.759689 
	C51.747826,138.740860 51.476692,138.722031 51.205559,138.703201 
	C50.350769,133.890396 49.495983,129.077591 48.631596,124.210739 
	C46.681477,124.210739 44.982117,124.210739 43.221611,124.210739 
	C43.221611,132.799347 43.221611,141.042191 43.221611,149.270432 
	C46.611889,149.453156 46.611889,149.453156 47.316936,138.778961 
	C48.703178,143.260513 49.769997,146.709412 50.836811,150.158310 
	C51.438599,150.062286 52.040386,149.966278 52.642174,149.870255 
	C53.550613,146.789093 54.459053,143.707947 55.367493,140.626785 
	C56.139664,142.970032 56.114784,145.117752 56.145599,147.264679 
	C56.189720,150.338104 57.605915,150.518250 59.995041,148.503250 
	C59.995041,148.503250 59.903969,148.024612 60.063293,147.095963 
	C60.014992,139.724167 59.966686,132.352356 59.942413,124.431175 
	C59.632904,124.304970 59.323391,124.178772 58.176853,123.895248 
M110.674324,123.844345 
	C109.931885,124.322105 108.550461,124.789253 108.542313,125.279221 
	C108.408203,133.348785 108.447014,141.421234 108.447014,149.870026 
	C110.738388,149.691162 112.294998,149.569656 114.039680,149.433472 
	C114.039680,141.476395 114.123322,133.999557 113.931877,126.529770 
	C113.908432,125.614929 112.411331,124.737854 110.674324,123.844345 
z"/>
<path fill="#567675" opacity="1.000000" stroke="none" 
	d="
M30.375000,151.000000 
	C25.273249,148.672836 23.633343,144.697662 23.866085,139.665375 
	C24.019011,136.358826 23.730377,132.996063 24.233410,129.750534 
	C24.872515,125.627083 27.062080,122.771355 31.862339,122.885704 
	C36.328041,122.992088 38.710392,125.467010 39.028980,129.558762 
	C39.398003,134.298294 39.320572,139.098404 39.064323,143.852142 
	C38.877876,147.310898 36.867081,149.643997 33.151363,150.678864 
	C32.250000,151.000000 31.500000,151.000000 30.375000,151.000000 
M30.267908,128.027161 
	C30.000286,133.090332 29.611990,138.152710 29.578127,143.217453 
	C29.572149,144.111664 31.046219,145.015747 31.836811,145.915283 
	C32.546608,144.941162 33.815762,143.996567 33.869038,142.987778 
	C34.095459,138.700287 34.144482,134.379791 33.818119,130.104980 
	C33.745270,129.150803 31.891788,128.332581 30.267908,128.027161 
z"/>
<path fill="#577877" opacity="1.000000" stroke="none" 
	d="
M88.437500,151.000000 
	C86.325363,148.656174 84.650719,146.312363 82.976074,143.968536 
	C83.517288,143.316071 84.058502,142.663605 84.599724,142.011154 
	C86.193634,142.917786 87.771835,143.853714 89.387260,144.720261 
	C90.378441,145.251938 91.426643,145.677322 92.449234,146.150452 
	C92.744919,144.843933 93.726219,143.051117 93.208656,142.321426 
	C91.609909,140.067368 89.565849,138.072968 87.459846,136.248917 
	C84.725250,133.880432 82.451157,130.982529 84.688057,127.738876 
	C86.096199,125.696976 89.276878,124.163277 91.855820,123.808823 
	C95.816650,123.264427 98.199654,125.823723 98.945152,131.033676 
	C96.593369,130.230591 94.822647,129.585373 93.024506,129.028748 
	C92.104698,128.744019 91.135788,128.617935 90.189056,128.420151 
	C90.189766,129.502228 89.740479,130.977722 90.276978,131.591385 
	C91.785378,133.316788 93.720558,134.663879 95.449982,136.202271 
	C100.622658,140.803528 100.471893,146.004074 95.032051,150.637756 
	C92.958336,151.000000 90.916664,151.000000 88.437500,151.000000 
z"/>
<path fill="#557675" opacity="1.000000" stroke="none" 
	d="
M9.428461,151.000000 
	C7.107346,148.744141 5.214694,146.488266 2.481970,143.231125 
	C6.587507,142.766785 9.188651,140.925552 10.265964,145.158646 
	C10.429107,145.799683 11.760898,146.143295 12.552126,146.624481 
	C13.108073,145.681824 14.367867,144.356583 14.099133,143.862167 
	C12.882695,141.624176 11.309632,139.561447 9.719995,137.550217 
	C8.206524,135.635345 5.910610,134.109299 5.035190,131.971497 
	C3.583920,128.427444 5.947941,124.808632 9.583179,123.902435 
	C14.717138,122.622658 17.810081,124.493919 19.388477,130.984253 
	C17.069956,130.141815 15.409120,129.470047 13.703077,128.945251 
	C12.748764,128.651688 11.719475,128.601868 10.723968,128.442215 
	C10.740415,129.499252 10.318269,130.958740 10.852351,131.540802 
	C12.749444,133.608231 15.094135,135.259079 17.047806,137.281631 
	C21.656422,142.052780 20.967968,146.700287 15.129202,150.675613 
	C13.285642,151.000000 11.571282,151.000000 9.428461,151.000000 
z"/>
<path fill="#CED0D2" opacity="1.000000" stroke="none" 
	d="
M59.666668,1.000000 
	C60.020760,9.292215 60.041519,17.584431 59.718616,26.393995 
	C58.899216,26.901443 58.423477,26.891544 57.947739,26.881643 
	C57.955109,18.566738 57.962479,10.251832 57.984924,1.468463 
	C58.444447,1.000000 58.888889,1.000000 59.666668,1.000000 
z"/>
<path fill="#597978" opacity="1.000000" stroke="none" 
	d="
M59.918385,124.980553 
	C59.966686,132.352356 60.014992,139.724167 59.830917,147.634537 
	C59.533134,148.264236 59.392120,148.398407 59.415279,148.439117 
	C59.521004,148.624817 59.672832,148.784286 59.808090,148.953186 
	C57.605915,150.518250 56.189720,150.338104 56.145599,147.264679 
	C56.114784,145.117752 56.139664,142.970032 55.367493,140.626785 
	C54.459053,143.707947 53.550613,146.789093 52.642174,149.870255 
	C52.040386,149.966278 51.438599,150.062286 50.836811,150.158310 
	C49.769997,146.709412 48.703178,143.260513 47.316936,138.778961 
	C46.611889,149.453156 46.611889,149.453156 43.221611,149.270432 
	C43.221611,141.042191 43.221611,132.799347 43.221611,124.210739 
	C44.982117,124.210739 46.681477,124.210739 48.631596,124.210739 
	C49.495983,129.077591 50.350769,133.890396 51.205559,138.703201 
	C51.476692,138.722031 51.747826,138.740860 52.018963,138.759689 
	C52.678761,134.895660 53.565857,131.052582 53.924404,127.160812 
	C54.197315,124.198578 55.630886,123.513603 58.686031,124.180664 
	C59.372475,124.727234 59.613533,124.898727 59.918385,124.980553 
z"/>
<path fill="#5AA796" opacity="1.000000" stroke="none" 
	d="
M90.467613,76.151810 
	C90.346184,76.554695 90.224754,76.957573 89.755753,77.743576 
	C88.897438,78.701073 88.386703,79.275444 87.875969,79.849815 
	C87.875969,79.849815 87.865440,79.972610 87.558624,79.931229 
	C86.856300,79.945198 86.460793,80.000534 85.931229,79.758354 
	C84.314011,78.650238 82.830826,77.839653 81.171204,76.712921 
	C74.017044,72.640686 67.039330,68.884598 59.828194,64.937080 
	C59.052227,64.507988 58.509686,64.270325 57.767296,63.841881 
	C57.052746,63.475796 56.538040,63.300484 55.906563,62.856285 
	C55.286438,62.310562 54.783092,62.033722 54.055977,61.494171 
	C46.558918,57.361023 39.285629,53.490582 31.886147,49.398911 
	C31.166458,48.852333 30.572960,48.526985 29.746794,48.027214 
	C29.020979,47.562836 28.527830,47.272881 28.034683,46.982922 
	C27.997349,46.545132 27.960014,46.107346 28.197376,45.237793 
	C28.986803,44.207634 29.501534,43.609238 30.016266,43.010841 
	C30.016266,43.010841 29.998222,43.005108 30.315775,43.005768 
	C31.039583,42.933922 31.445837,42.861412 32.062355,43.093704 
	C33.885563,43.980804 35.498501,44.563103 37.141949,45.479500 
	C44.114727,49.631302 51.056995,53.449013 58.132286,57.484623 
	C58.734966,57.899010 59.204636,58.095501 59.888889,58.533089 
	C61.397198,59.515488 62.690926,60.256790 64.252861,61.213570 
	C71.667145,65.150146 78.813217,68.871254 86.102493,72.809555 
	C86.843407,73.334267 87.441109,73.641785 88.236771,74.145683 
	C88.953262,74.519676 89.471794,74.697296 90.065468,75.210648 
	C90.249619,75.748192 90.358620,75.950005 90.467613,76.151810 
z"/>
<path fill="#577877" opacity="1.000000" stroke="none" 
	d="
M81.347649,77.029060 
	C82.830826,77.839653 84.314011,78.650238 85.868286,79.940994 
	C85.939392,80.421150 85.970253,80.805908 85.609962,80.861092 
	C78.178535,84.972710 71.107399,89.029144 63.764397,93.129990 
	C62.915634,93.815865 62.338737,94.457321 61.761845,95.098770 
	C61.339012,95.242035 60.916180,95.385292 59.900650,95.616043 
	C58.910542,95.742081 58.513134,95.780632 58.115723,95.819183 
	C57.773895,95.656891 57.432072,95.494598 56.669273,95.025497 
	C55.481003,94.190903 54.713711,93.663124 53.666260,92.931488 
	C46.260059,88.800278 39.134018,84.872932 31.848888,80.679344 
	C31.110518,80.313683 30.531235,80.214279 29.951950,80.114876 
	C29.510937,79.724152 29.069923,79.333427 28.309460,78.479446 
	C28.777000,76.791687 29.563990,75.567184 30.622334,74.303436 
	C31.253262,74.190918 31.612831,74.117645 32.177570,74.246376 
	C32.920383,74.645363 33.458027,74.842346 34.083908,75.317215 
	C34.804340,76.012238 35.436531,76.429382 36.359444,77.037888 
	C43.766556,81.163895 50.882950,85.098534 58.128181,89.267845 
	C58.838329,89.341927 59.419640,89.181328 60.358772,88.991028 
	C67.593620,84.983902 74.470634,81.006485 81.347649,77.029060 
z"/>
<path fill="#577776" opacity="1.000000" stroke="none" 
	d="
M37.111443,45.145401 
	C35.498501,44.563103 33.885563,43.980804 32.116508,42.890827 
	C31.960398,42.383148 31.995207,41.963875 32.354023,41.949505 
	C40.336040,37.302872 47.959240,32.670609 55.833130,28.110718 
	C56.469154,27.873035 56.854481,27.562979 57.239811,27.252922 
	C57.239811,27.252922 57.621853,27.120859 57.784798,27.001251 
	C58.423477,26.891544 58.899216,26.901443 59.727081,26.849199 
	C60.079212,26.787054 60.474052,26.978531 60.835148,27.303410 
	C62.054424,28.162310 62.912609,28.696331 63.992184,29.493149 
	C71.100441,33.546249 77.987312,37.336555 85.079010,41.363262 
	C85.884987,41.695763 86.486122,41.791862 87.087265,41.887962 
	C87.205521,42.145947 87.376976,42.361629 88.012405,42.834930 
	C89.172234,43.444336 89.921288,43.753834 90.670349,44.063332 
	C90.464394,44.535450 90.258438,45.007572 89.666504,45.803921 
	C88.180321,46.766769 87.080124,47.405392 85.780594,47.972260 
	C85.581261,47.900501 85.161407,47.843472 84.987617,47.593063 
	C83.940796,46.824291 83.067757,46.305923 81.970657,45.526466 
	C74.511589,41.338764 67.276588,37.412148 59.849022,33.315094 
	C59.102123,33.387363 58.547798,33.630074 57.631783,33.916222 
	C50.550545,37.688244 43.830994,41.416821 37.111443,45.145401 
z"/>
<path fill="#D3D4D6" opacity="1.000000" stroke="none" 
	d="
M85.979919,48.044014 
	C87.080124,47.405392 88.180321,46.766769 89.589813,46.054733 
	C98.494438,50.887707 107.089767,55.794090 116.686516,61.272106 
	C107.545021,66.524117 99.321609,71.248657 90.782913,76.062508 
	C90.358620,75.950005 90.249619,75.748192 90.098572,74.873749 
	C96.698921,69.900116 103.341301,65.599121 110.511223,60.956539 
	C102.778107,56.580875 95.870735,52.672447 88.038818,48.240879 
	C88.038818,57.725304 88.038818,65.837303 88.038818,73.949303 
	C87.441109,73.641785 86.843407,73.334267 86.097534,72.296768 
	C85.959549,63.725868 85.969734,55.884941 85.979919,48.044014 
z"/>
<path fill="#D3D4D6" opacity="1.000000" stroke="none" 
	d="
M30.350979,74.342682 
	C29.563990,75.567184 28.777000,76.791687 28.039452,78.340881 
	C23.136705,81.923393 18.184521,85.181221 13.232334,88.439056 
	C12.807468,87.789330 12.382603,87.139610 11.957737,86.489883 
	C16.868422,83.415779 21.779108,80.341675 27.601311,76.696953 
	C18.793253,71.530968 10.528460,66.683609 1.263535,61.249664 
	C10.541535,56.181229 18.922791,51.602673 27.669365,47.003517 
	C28.527830,47.272881 29.020979,47.562836 29.738234,48.256798 
	C29.962341,48.660801 29.934715,49.121189 29.581415,49.114655 
	C22.178249,53.012047 15.128385,56.915974 6.752128,61.554405 
	C15.350299,66.142990 22.600136,70.012016 29.975615,73.996025 
	C30.101259,74.111008 30.350979,74.342682 30.350979,74.342682 
z"/>
<path fill="#62807F" opacity="1.000000" stroke="none" 
	d="
M111.135742,123.843811 
	C112.411331,124.737854 113.908432,125.614929 113.931877,126.529770 
	C114.123322,133.999557 114.039680,141.476395 114.039680,149.433472 
	C112.294998,149.569656 110.738388,149.691162 108.447014,149.870026 
	C108.447014,141.421234 108.408203,133.348785 108.542313,125.279221 
	C108.550461,124.789253 109.931885,124.322105 111.135742,123.843811 
z"/>
<path fill="#D2D3D5" opacity="1.000000" stroke="none" 
	d="
M61.887260,95.488510 
	C62.338737,94.457321 62.915634,93.815865 63.806030,93.468262 
	C71.000343,98.002014 77.881142,102.241920 85.970253,107.226379 
	C85.970253,97.273666 85.970253,89.039787 85.970253,80.805908 
	C85.970253,80.805908 85.939392,80.421150 86.002335,80.238510 
	C86.460793,80.000534 86.856300,79.945198 87.550461,79.869171 
	C87.849106,89.933533 87.849106,100.018578 87.849106,111.379410 
	C78.823112,105.964050 70.417892,100.921150 61.887260,95.488510 
z"/>
<path fill="#D2D3D5" opacity="1.000000" stroke="none" 
	d="
M29.960121,80.575348 
	C30.531235,80.214279 31.110518,80.313683 31.861858,81.151833 
	C32.033913,89.866234 32.033913,97.841896 32.033913,106.935188 
	C38.367195,103.233208 43.369423,100.402916 48.266716,97.401405 
	C50.276531,96.169601 52.059990,94.568474 53.946419,93.135345 
	C54.713711,93.663124 55.481003,94.190903 56.394196,94.952545 
	C48.007744,100.437263 39.475395,105.688126 29.968294,111.538857 
	C29.968294,100.467056 29.968294,90.751434 29.960121,80.575348 
z"/>
<path fill="#D2D3D5" opacity="1.000000" stroke="none" 
	d="
M87.283562,41.527649 
	C86.486122,41.791862 85.884987,41.695763 85.388962,41.065083 
	C85.494087,32.741093 85.494087,24.951681 85.494087,15.933863 
	C77.530640,20.808168 70.650711,25.019262 63.770790,29.230354 
	C62.912609,28.696331 62.054424,28.162310 61.045914,27.364380 
	C69.637520,22.123243 78.379448,17.146013 87.479858,11.964683 
	C87.479858,22.098660 87.479858,31.632996 87.283562,41.527649 
z"/>
<path fill="#D2D3D5" opacity="1.000000" stroke="none" 
	d="
M31.995207,41.963875 
	C31.995207,41.963875 31.960398,42.383148 31.906246,42.586025 
	C31.445837,42.861412 31.039583,42.933922 30.323580,43.014431 
	C30.013832,32.926670 30.013832,22.830914 30.013832,11.403399 
	C39.420097,16.870155 48.017448,21.866789 56.927307,27.058172 
	C56.854481,27.562979 56.469154,27.873035 55.424358,28.110458 
	C47.401840,24.173132 40.038784,20.308435 31.995207,16.086548 
	C31.995207,25.141748 31.995207,33.552811 31.995207,41.963875 
z"/>
<path fill="#577776" opacity="1.000000" stroke="none" 
	d="
M69.090164,148.019974 
	C69.034416,140.650360 68.978661,133.280762 69.203102,125.351006 
	C69.737534,124.605484 69.905449,124.360847 69.987045,124.056953 
	C70.746452,124.004845 71.505859,123.952744 72.740189,124.189514 
	C73.409836,124.738373 73.664070,124.910477 73.977814,124.994682 
	C74.033211,132.356934 74.088600,139.719193 73.898087,147.615997 
	C73.577347,148.239532 73.420944,148.370972 73.441437,148.410339 
	C73.543320,148.606049 73.691772,148.777512 73.823830,148.957520 
	C72.377113,149.161087 70.930389,149.364655 69.482834,149.153076 
	C69.626572,148.385696 69.495956,148.146378 69.090164,148.019974 
z"/>
<path fill="#D3D4D6" opacity="1.000000" stroke="none" 
	d="
M88.258514,79.903732 
	C88.386703,79.275444 88.897438,78.701073 89.693954,78.053177 
	C95.679794,80.604027 101.379837,83.228401 107.079880,85.852783 
	C106.874802,86.506409 106.669716,87.160027 106.464638,87.813652 
	C105.045685,87.470352 103.518440,87.355278 102.227325,86.742592 
	C97.654968,84.572823 93.163300,82.233017 88.258514,79.903732 
z"/>
<path fill="#D3D4D6" opacity="1.000000" stroke="none" 
	d="
M91.058517,44.038719 
	C89.921288,43.753834 89.172234,43.444336 88.206787,42.909508 
	C94.001457,39.655407 100.012512,36.626633 106.023575,33.597858 
	C106.397469,34.308193 106.771362,35.018528 107.145256,35.728863 
	C101.912399,38.490612 96.679543,41.252361 91.058517,44.038719 
z"/>
<path fill="#D3D4D6" opacity="1.000000" stroke="none" 
	d="
M29.661118,42.956146 
	C29.501534,43.609238 28.986803,44.207634 28.186546,44.908424 
	C22.017778,42.687992 16.542025,39.748001 11.686947,35.867962 
	C12.034351,35.284317 12.381757,34.700668 12.729162,34.117020 
	C18.254766,37.045166 23.780369,39.973309 29.661118,42.956146 
z"/>
<path fill="#CED0D2" opacity="1.000000" stroke="none" 
	d="
M58.065971,96.300476 
	C58.513134,95.780632 58.910542,95.742081 59.601761,95.767502 
	C59.895573,103.690575 59.895573,111.549683 59.895573,119.408791 
	C59.269119,119.422295 58.642670,119.435806 58.016216,119.449318 
	C58.016216,111.893471 58.016216,104.337624 58.065971,96.300476 
z"/>
<path fill="#486C6B" opacity="1.000000" stroke="none" 
	d="
M69.710823,124.045326 
	C69.905449,124.360847 69.737534,124.605484 69.278442,124.886459 
	C69.193924,124.665939 69.314262,124.349815 69.710823,124.045326 
z"/>
<path fill="#486C6B" opacity="1.000000" stroke="none" 
	d="
M59.930397,124.705864 
	C59.613533,124.898727 59.372475,124.727234 59.104546,124.259323 
	C59.323391,124.178772 59.632904,124.304970 59.930397,124.705864 
z"/>
<path fill="#486C6B" opacity="1.000000" stroke="none" 
	d="
M73.986298,124.710564 
	C73.664070,124.910477 73.409836,124.738373 73.114685,124.267319 
	C73.341095,124.179649 73.667938,124.303047 73.986298,124.710564 
z"/>
<path fill="#486C6B" opacity="1.000000" stroke="none" 
	d="
M59.901566,148.728210 
	C59.672832,148.784286 59.521004,148.624817 59.415279,148.439117 
	C59.392120,148.398407 59.533134,148.264236 59.751251,148.098862 
	C59.903969,148.024612 59.995041,148.503250 59.901566,148.728210 
z"/>
<path fill="#486C6B" opacity="1.000000" stroke="none" 
	d="
M69.046623,148.261810 
	C69.495956,148.146378 69.626572,148.385696 69.351028,148.841248 
	C69.220062,148.944550 69.003075,148.503632 69.046623,148.261810 
z"/>
<path fill="#486C6B" opacity="1.000000" stroke="none" 
	d="
M73.945847,148.733124 
	C73.691772,148.777512 73.543320,148.606049 73.441437,148.410339 
	C73.420944,148.370972 73.577347,148.239532 73.813133,148.078537 
	C74.005341,148.173920 74.036606,148.341309 73.945847,148.733124 
z"/>
<path fill="#F2F5F5" opacity="1.000000" stroke="none" 
	d="
M30.563009,127.739464 
	C31.891788,128.332581 33.745270,129.150803 33.818119,130.104980 
	C34.144482,134.379791 34.095459,138.700287 33.869038,142.987778 
	C33.815762,143.996567 32.546608,144.941162 31.836811,145.915283 
	C31.046219,145.015747 29.572149,144.111664 29.578127,143.217453 
	C29.611990,138.152710 30.000286,133.090332 30.563009,127.739464 
z"/>
<path fill="#FDFDFD" opacity="1.000000" stroke="none" 
	d="
M88.236771,74.145683 
	C88.038818,65.837303 88.038818,57.725304 88.038818,48.240879 
	C95.870735,52.672447 102.778107,56.580875 110.511223,60.956539 
	C103.341301,65.599121 96.698921,69.900116 90.023438,74.538010 
	C89.471794,74.697296 88.953262,74.519676 88.236771,74.145683 
z"/>
<path fill="#FCFCFC" opacity="1.000000" stroke="none" 
	d="
M57.999340,89.033173 
	C50.882950,85.098534 43.766556,81.163895 36.400337,76.703354 
	C39.617725,74.028999 43.129654,71.948730 46.539204,69.712372 
	C49.756603,67.602043 52.866280,65.327492 56.023338,63.125175 
	C56.538040,63.300484 57.052746,63.475796 57.766018,64.308044 
	C57.976173,72.987717 57.987755,81.010445 57.999340,89.033173 
z"/>
<path fill="#FCFCFC" opacity="1.000000" stroke="none" 
	d="
M33.995670,75.039322 
	C33.458027,74.842346 32.920383,74.645363 32.199318,73.774857 
	C32.014713,65.274269 32.013527,57.447201 32.012341,49.620136 
	C39.285629,53.490582 46.558918,57.361023 53.830750,61.787945 
	C49.558613,64.741158 45.203873,67.002617 41.048641,69.585098 
	C38.537624,71.145691 36.336201,73.204422 33.995670,75.039322 
z"/>
<path fill="#FCFCFC" opacity="1.000000" stroke="none" 
	d="
M85.780594,47.972260 
	C85.969734,55.884941 85.959549,63.725868 85.954330,72.079575 
	C78.813217,68.871254 71.667145,65.150146 64.394348,60.901863 
	C71.232216,56.197609 78.196815,52.020538 85.161407,47.843472 
	C85.161407,47.843472 85.581261,47.900501 85.780594,47.972260 
z"/>
<path fill="#FAFCFB" opacity="1.000000" stroke="none" 
	d="
M81.171204,76.712921 
	C74.470634,81.006485 67.593620,84.983902 60.364651,88.520935 
	C60.029007,80.429871 60.045311,72.779182 60.061615,65.128502 
	C67.039330,68.884598 74.017044,72.640686 81.171204,76.712921 
z"/>
<path fill="#FAFBFB" opacity="1.000000" stroke="none" 
	d="
M37.141949,45.479500 
	C43.830994,41.416821 50.550545,37.688244 57.624489,34.394463 
	C57.985680,42.308414 57.992474,49.787571 57.999268,57.266724 
	C51.056995,53.449013 44.114727,49.631302 37.141949,45.479500 
z"/>
<path fill="#D3D4D6" opacity="1.000000" stroke="none" 
	d="
M84.987617,47.593063 
	C78.196815,52.020538 71.232216,56.197609 64.126137,60.686386 
	C62.690926,60.256790 61.397198,59.515488 59.999832,58.437000 
	C59.896191,58.099815 60.117767,57.911907 60.476974,57.943245 
	C67.955696,53.912243 75.075211,49.849899 82.194725,45.787560 
	C83.067757,46.305923 83.940796,46.824291 84.987617,47.593063 
z"/>
<path fill="#D2D3D5" opacity="1.000000" stroke="none" 
	d="
M34.083908,75.317215 
	C36.336201,73.204422 38.537624,71.145691 41.048641,69.585098 
	C45.203873,67.002617 49.558613,64.741158 54.054516,62.050652 
	C54.783092,62.033722 55.286438,62.310562 55.906563,62.856289 
	C52.866280,65.327492 49.756603,67.602043 46.539204,69.712372 
	C43.129654,71.948730 39.617725,74.028999 36.109615,76.511978 
	C35.436531,76.429382 34.804340,76.012238 34.083908,75.317215 
z"/>
<path fill="#CED0D2" opacity="1.000000" stroke="none" 
	d="
M59.828194,64.937080 
	C60.045311,72.779182 60.029007,80.429871 60.006824,88.550644 
	C59.419640,89.181328 58.838329,89.341927 58.128181,89.267845 
	C57.987755,81.010445 57.976173,72.987717 57.965866,64.498825 
	C58.509686,64.270325 59.052227,64.507988 59.828194,64.937080 
z"/>
<path fill="#CED0D2" opacity="1.000000" stroke="none" 
	d="
M31.886147,49.398911 
	C32.013527,57.447201 32.014713,65.274269 31.994152,73.572853 
	C31.612831,74.117645 31.253262,74.190918 30.622335,74.303436 
	C30.350979,74.342682 30.101259,74.111008 30.026009,73.541527 
	C29.945410,65.021759 29.940062,57.071476 29.934715,49.121189 
	C29.934715,49.121189 29.962341,48.660801 29.970901,48.431221 
	C30.572960,48.526985 31.166458,48.852333 31.886147,49.398911 
z"/>
<path fill="#CED0D2" opacity="1.000000" stroke="none" 
	d="
M58.132286,57.484623 
	C57.992474,49.787571 57.985680,42.308414 57.986179,34.351021 
	C58.547798,33.630074 59.102123,33.387363 59.845444,33.825745 
	C60.062214,42.308529 60.089989,50.110218 60.117767,57.911907 
	C60.117767,57.911907 59.896191,58.099815 59.785248,58.195904 
	C59.204636,58.095501 58.734966,57.899010 58.132286,57.484623 
z"/>
<path fill="#FCFCFC" opacity="1.000000" stroke="none" 
	d="
M85.609962,80.861092 
	C85.970253,89.039787 85.970253,97.273666 85.970253,107.226379 
	C77.881142,102.241920 71.000343,98.002014 64.077896,93.423843 
	C71.107399,89.029144 78.178535,84.972710 85.609962,80.861092 
z"/>
<path fill="#FCFCFC" opacity="1.000000" stroke="none" 
	d="
M53.666256,92.931488 
	C52.059990,94.568474 50.276531,96.169601 48.266716,97.401405 
	C43.369423,100.402916 38.367195,103.233208 32.033913,106.935188 
	C32.033913,97.841896 32.033913,89.866234 32.020943,81.418083 
	C39.134018,84.872932 46.260059,88.800278 53.666256,92.931488 
z"/>
<path fill="#FCFCFC" opacity="1.000000" stroke="none" 
	d="
M32.354023,41.949505 
	C31.995207,33.552811 31.995207,25.141748 31.995207,16.086548 
	C40.038784,20.308435 47.401840,24.173132 55.173668,28.038086 
	C47.959240,32.670609 40.336040,37.302872 32.354023,41.949505 
z"/>
<path fill="#FCFCFC" opacity="1.000000" stroke="none" 
	d="
M63.992184,29.493149 
	C70.650711,25.019262 77.530640,20.808168 85.494087,15.933863 
	C85.494087,24.951681 85.494087,32.741093 85.184128,40.828682 
	C77.987312,37.336555 71.100441,33.546249 63.992184,29.493149 
z"/>
<path fill="#FCFCFC" opacity="1.000000" stroke="none" 
	d="
M60.476971,57.943245 
	C60.089989,50.110218 60.062214,42.308529 60.038017,33.996185 
	C67.276588,37.412148 74.511589,41.338764 81.970657,45.526466 
	C75.075211,49.849899 67.955696,53.912243 60.476971,57.943245 
z"/>
<path fill="#FDFEFE" opacity="1.000000" stroke="none" 
	d="
M29.581413,49.114655 
	C29.940062,57.071476 29.945410,65.021759 29.900364,73.426544 
	C22.600136,70.012016 15.350299,66.142990 6.752128,61.554405 
	C15.128385,56.915974 22.178249,53.012047 29.581413,49.114655 
z"/>
</svg>